<?xml version="1.0" encoding="UTF-8" standalone="no"?>
<!-- Created with Inkscape (http://www.inkscape.org/) -->

<svg
   width="111.47109mm"
   height="123.13179mm"
   viewBox="0 0 111.47109 123.13179"
   version="1.1"
   id="svg5"
   xml:space="preserve"
   xmlns="http://www.w3.org/2000/svg"
   xmlns:svg="http://www.w3.org/2000/svg"><defs
     id="defs2" /><g
     id="layer1"
     transform="translate(-50.466184,-30.871652)"><path
       style="fill:#000000;fill-opacity:1;stroke:none;stroke-width:0.264583px;stroke-linecap:butt;stroke-linejoin:miter;stroke-opacity:1"
       d="M 88.489,68.131 C 78.187096,64.951981 68.386504,58.582029 67.010243,48.614302 66.691767,43.59193 67.568822,38.038999 78.072033,30.871653 c -7.5128,3.091916 -11.144425,4.442998 -16.859457,9.097982 -11.624938,9.988499 -10.704699,16.204277 -10.741687,22.339199 3.203379,17.116009 20.604108,23.719368 28.728419,27.087151 z"
       id="path403" /><path
       style="fill:#000000;fill-opacity:1;stroke:none;stroke-width:0.264583px;stroke-linecap:butt;stroke-linejoin:miter;stroke-opacity:1"
       d="m 123.91451,68.130756 c 10.3019,-3.179019 20.10245,-9.548727 21.47871,-19.516454 0.31848,-5.022372 -0.55858,-10.575303 -11.06179,-17.742649 7.5128,3.091916 11.14443,4.442998 16.85946,9.097982 11.62494,9.988499 10.7047,16.204277 10.74168,22.339199 -3.20337,17.116009 -20.6041,23.719368 -28.72841,27.087151 z"
       id="path454" /><circle
       style="fill:none;fill-opacity:0.584436;stroke:#000000;stroke-width:2.265;stroke-linecap:round;stroke-linejoin:round;stroke-dasharray:none;stroke-opacity:1"
       id="path1066"
       cx="106.202"
       cy="145.13744"
       r="7.733501" /><path
       style="fill:#000000;fill-opacity:1;stroke:none;stroke-width:0.264583px;stroke-linecap:butt;stroke-linejoin:miter;stroke-opacity:1"
       d="m 106.36,144.12085 c 6.75956,0.0582 13.51125,-1.79125 16.86708,-4.51287 2.92464,-2.09318 2.47928,-11.51006 4.29242,-17.84153 1.92543,-6.96909 6.07716,-7.83693 6.7856,-19.20659 0.50327,-13.909453 -2.94438,-20.418313 -10.39042,-34.42886 -5.96595,-0.677251 -11.70457,1.495 -17.71268,1.495 -6.00811,0 -11.747047,-2.172251 -17.713,-1.495 -7.446043,14.010547 -10.893691,20.519407 -10.390424,34.42886 0.708441,11.36966 4.860175,12.2375 6.785601,19.20659 1.813143,6.33147 1.367783,15.74835 4.292425,17.84153 3.355827,2.72162 10.107521,4.57105 16.867078,4.51287"
       id="path1120" /></g></svg>
