<?xml version="1.0" encoding="UTF-8" standalone="no"?>
<!-- Created with Inkscape (http://www.inkscape.org/) -->

<svg
   width="46.013611mm"
   height="46.013615mm"
   viewBox="0 0 46.013611 46.013615"
   version="1.1"
   id="svg5"
   xml:space="preserve"
   xmlns:inkscape="http://www.inkscape.org/namespaces/inkscape"
   xmlns:sodipodi="http://sodipodi.sourceforge.net/DTD/sodipodi-0.dtd"
   xmlns="http://www.w3.org/2000/svg"
   xmlns:svg="http://www.w3.org/2000/svg"><sodipodi:namedview
     id="namedview7"
     pagecolor="#505050"
     bordercolor="#ffffff"
     borderopacity="1"
     inkscape:showpageshadow="0"
     inkscape:pageopacity="0"
     inkscape:pagecheckerboard="1"
     inkscape:deskcolor="#505050"
     inkscape:document-units="mm"
     showgrid="false" /><defs
     id="defs2" /><g
     inkscape:label="Layer 1"
     inkscape:groupmode="layer"
     id="layer1"
     transform="translate(-66.282426,-42.840502)"><path
       style="fill:#000000;fill-opacity:1;stroke:none;stroke-width:0.264583px;stroke-linecap:butt;stroke-linejoin:round;stroke-opacity:1"
       d="M 66.282423,85.974014 94.920248,57.33619 c 0,0 -1.093193,-1.180238 -1.115515,-1.489188 -0.02232,-0.30895 1.634434,-1.858159 1.634434,-1.858159 -4.693144,-4.267884 -10.707231,-8.543052 -17.135929,-11.148342 7.734703,0.401994 15.197587,2.983953 20.773632,7.51064 0,0 0.784849,-0.662449 1.05217,-0.625584 0.25074,0.03458 1.36659,1.035247 1.36659,1.035247 l 1.05098,-1.050977 c 0.70767,0.05361 1.44862,0.472717 1.94542,0.934685 0.46196,0.496799 0.88107,1.237748 0.93468,1.945414 l -1.05098,1.050977 c 0,0 1.00067,1.115853 1.03525,1.366595 0.0369,0.267324 -0.62558,1.05217 -0.62558,1.05217 4.52668,5.576044 7.10864,13.038926 7.51064,20.773634 -2.6053,-6.428702 -6.88046,-12.442788 -11.14835,-17.135932 0,0 -1.549205,1.65676 -1.858154,1.634434 -0.308949,-0.02232 -1.489189,-1.115515 -1.489189,-1.115515 L 69.162523,88.854114 c 0,0 -1.099145,-0.816302 -1.581471,-1.298628 -0.482326,-0.482326 -1.298629,-1.581472 -1.298629,-1.581472 z"
       id="path957"
       sodipodi:nodetypes="cczcccscccccsccczcczc" /></g></svg>
